<svg xmlns="http://www.w3.org/2000/svg" xmlns:xlink="http://www.w3.org/1999/xlink"><defs>
<clipPath id="clip0_2403_774">
<rect width="268" height="112" fill="white" transform="translate(0 44)"/>
</clipPath>

<clipPath id="clip0_2403_755">
<rect width="140" height="192" fill="white" transform="translate(30)"/>
</clipPath>
</defs><symbol id="cat_fat" viewBox="0 0 268 200">
<circle cx="136" cy="100" r="100" fill="#68B738"/>
<g clip-path="url(#clip0_2403_774)">
<path d="M246.2 55.5999C248.509 51.9261 251.578 48.7891 255.2 46.3999C257.2 44.9999 258.4 44.9999 259.6 47.5999C261.2 51.3999 262.6 55.3999 261.4 59.5999C261.182 60.3122 261.14 61.0671 261.28 61.799C261.419 62.5309 261.735 63.2177 262.2 63.7999C263.4 65.3999 264.4 66.9999 265.4 68.3999C266.761 70.1274 267.644 72.1825 267.96 74.359C268.276 76.5354 268.014 78.7567 267.2 80.7999C266.466 82.7835 266.327 84.9384 266.8 86.9999C267.2 88.9799 267.2 91.0199 266.8 92.9999C266.638 94.4827 266.038 95.8837 265.076 97.0237C264.115 98.1637 262.835 98.991 261.4 99.3999C258.842 99.8867 256.559 101.314 255 103.4C254.811 103.707 254.546 103.961 254.231 104.136C253.916 104.311 253.561 104.402 253.2 104.4C250.8 104.8 244.8 99.3999 244.8 96.9999V95.7999C245 88.5999 244.6 87.9999 238 84.9999C236.619 84.5127 235.381 83.6877 234.4 82.5999C233.2 80.9999 231.6 81.1999 229.8 81.7999C228 82.3999 227 83.5999 227.2 85.5999C227.803 90.4416 228.004 95.325 227.8 100.2C227.813 100.756 227.95 101.303 228.2 101.8C234.4 110.8 236.8 121.4 239.8 131.6C242.2 139.4 246.6 143.6 254.6 144.2C255.88 144.302 257.151 144.503 258.4 144.8C260.044 145.064 261.57 145.815 262.783 146.956C263.995 148.097 264.837 149.575 265.2 151.2C266.6 155.4 265.8 156.4 261.6 156.4H248.6C246.917 156.485 245.267 155.911 244 154.8C241.976 153.092 239.677 151.739 237.2 150.8C234.462 149.789 232.093 147.977 230.4 145.6C228.057 142.327 225.376 139.31 222.4 136.6C216.8 130.8 210.8 125.2 205.6 119.2C201.641 115.112 199.358 109.688 199.2 104C199.2 102.2 198.8 101.4 196.8 102.2C196.201 102.58 195.509 102.787 194.8 102.8C189.2 102.8 186.4 106.2 184.4 111.2C182.6 115.4 180.2 119.4 178 123.6C176.753 126.229 176.071 129.091 176 132C176 136.8 177.2 138.4 181.6 140C184.4 141 187 142 188.4 144.8C190 148 189.6 148.8 186.2 149H172.6C171.816 149.078 171.027 148.907 170.346 148.512C169.664 148.117 169.123 147.518 168.8 146.8L165.2 140.8C164.139 139.234 163.459 137.442 163.216 135.566C162.973 133.691 163.173 131.784 163.8 130C164.666 126.527 164.734 122.903 164 119.4C163.496 116.96 163.539 114.439 164.127 112.018C164.715 109.597 165.833 107.337 167.4 105.4C168.6 104 168.6 103.4 166.6 103C158.422 101.263 150.493 98.5079 143 94.7999C142.947 94.7999 142.896 94.7788 142.859 94.7413C142.821 94.7038 142.8 94.6529 142.8 94.5999C136.4 92.1999 135.2 92.5999 133.4 99.1999C131.8 104.8 130.2 110.4 129 116.2C127.6 122.6 129.2 128.6 131.2 134.6C132 137 134.4 136.8 136.2 137.4C140.2 138.6 143.6 140.2 145.2 144.4C146.6 147.6 146.4 148 143 148C139.6 148 136.2 147.8 132.6 148C129.562 148.055 126.597 147.067 124.2 145.2C114.6 138.8 111.8 129 111 118.4C110.6 111.8 107 106.6 102.8 101.6C102 100.6 101.2 100.2 100 101C95.707 103.367 91.2249 105.374 86.6 107C76.9485 110.408 68.4793 116.517 62.2 124.6C59.8553 127.55 58.3368 131.07 57.8 134.8C57.2 138.4 58.2 140 61.8 141C65.4 142 67.2 144 67.6 147.8C67.8 149.4 67.2 150.2 65.6 150.2H49.4C48.8698 150.162 48.3566 149.997 47.9039 149.719C47.4512 149.44 47.0725 149.056 46.8 148.6C44.2877 145.489 42.9433 141.598 43 137.6C42.8951 130.69 43.4982 123.787 44.8 117C45.067 114.967 45.8259 113.03 47.0108 111.358C48.1958 109.685 49.7711 108.326 51.6 107.4C63.4 101.8 69.6 91.1999 75.2 80.1999C76.4 77.9999 75.4 77.5999 73.4 77.7999C67.8027 78.5769 62.4994 80.7809 58 84.1999C52.1084 88.4976 46.5585 93.2451 41.4 98.3999C35.8993 103.987 28.6054 107.457 20.8 108.2C6.20002 109 -0.599978 100.8 2.18973e-05 87.5999C0.134147 83.0991 1.83132 78.7854 4.80002 75.3999C5.83206 74.0619 7.23949 73.0619 8.84256 72.5275C10.4456 71.9931 12.1716 71.9487 13.8 72.3999C16.8 73.1999 17.6 74.7999 16.4 77.7999C15.8 78.9999 15 79.9999 14.4 81.1999C13.5372 82.4258 12.8631 83.7741 12.4 85.1999C10.2 91.1999 13.2 95.3999 19.4 95.9999C26 96.5999 31.4 93.7999 36.4 89.7999C42.4239 84.9764 47.8014 79.3972 52.4 73.1999C55.8385 68.6747 60.1682 64.9025 65.1217 62.1161C70.0751 59.3298 75.5472 57.5886 81.2 56.9999C85.8 56.3999 89.8 54.3999 94.2 53.1999C102.429 50.6911 110.998 49.4766 119.6 49.5999C123.584 49.7658 127.553 49.0131 131.2 47.3999C141 43.3999 151.2 43.3999 161.4 45.3999C169.4 46.9999 177.4 48.9999 185.2 50.9999C189.842 51.8648 194.615 51.7285 199.2 50.5999C207.977 48.375 216.956 47.0349 226 46.5999C231.925 46.3116 237.83 47.479 243.2 49.9999C247.2 51.7999 247.2 51.7999 246.2 55.5999Z" fill="black"/>
</g>

</symbol><symbol id="cat_skinny" viewBox="0 0 200 211">
<circle cx="100" cy="111" r="100" fill="#68B738"/>
<g clip-path="url(#clip0_2403_755)">
<path d="M139.68 0H138.92C137.636 0.718392 136.614 1.81987 136 3.14722C134.875 5.28913 134.009 7.55462 133.42 9.89691C133.294 10.6012 132.934 11.244 132.398 11.7241C131.863 12.2042 131.181 12.4945 130.46 12.5493C128.256 12.9253 126.167 13.7949 124.355 15.0917C122.542 16.3884 121.052 18.0779 120 20.0313C118.553 22.5676 117.316 25.2154 116.3 27.9489C113.46 35.233 111.28 42.7546 108.6 50.0981C107.34 53.4433 107.28 53.4433 103.48 53.4433C98.94 53.4433 99.26 52.7505 99.2 57.699C99.2 59.2627 99.68 60.0544 101.36 59.9753C101.88 59.9753 102.66 59.7179 102.86 60.3909C103.06 61.0639 102.38 61.3608 101.98 61.7567C99.6086 64.1392 96.6075 65.8129 93.32 66.5864C89.52 67.5959 85.64 68.3876 81.94 69.6148C72.44 72.7621 63.66 77.1563 56.82 84.5988C52.8206 89.2214 49.6177 94.4643 47.34 100.117C40 117.219 36.44 135.231 33.68 153.422C32.38 161.953 31.46 170.524 30.76 179.154C30.4 183.39 30 187.685 30 192H96.66C96.7707 191.129 96.6102 190.245 96.2 189.466C95.5589 187.887 94.5171 186.498 93.1753 185.434C91.8335 184.369 90.237 183.665 88.54 183.39C87.14 183.073 86.98 182.657 87.84 181.569C89.2427 179.716 90.318 177.641 91.02 175.433C94.28 165.912 95.54 155.975 97.12 146.138C98.0125 138.624 100.348 131.348 104 124.701C106.849 119.809 110.649 115.523 115.18 112.092C116.84 110.845 116.9 110.845 117.18 112.963C117.38 114.369 117.42 115.814 117.52 117.239C118.12 126.59 118 135.973 117.16 145.306C116.405 152.541 116.304 159.828 116.86 167.08C117.655 175.499 119.174 183.836 121.4 192H148C147.653 189.857 146.656 187.869 145.142 186.3C143.627 184.731 141.667 183.653 139.52 183.212C137.013 182.817 134.45 182.952 132 183.607C130.8 183.885 130.3 183.607 130.2 182.321C129.373 171.842 130.046 161.3 132.2 151.007C134.868 139.125 136.91 127.114 138.32 115.022C138.845 110.139 140.398 105.419 142.88 101.166C145.26 96.9699 147.34 92.6153 149.68 88.3992C150.609 86.8662 151.168 85.1417 151.314 83.3599C151.46 81.5781 151.188 79.7871 150.52 78.1262C149.98 76.7208 149.46 75.2957 148.8 73.9497C146.8 70.0899 144.8 66.2697 142.96 62.3703C141.98 60.3909 142.2 60.1534 144.38 60.094C147.64 60.094 147.64 60.094 147.7 56.8478C147.7 56.4124 147.7 55.9769 147.7 55.5414C147.7 54.1757 147.18 53.4235 145.7 53.5621C144.7 53.5621 143.7 53.5621 142.66 53.5621C141.28 53.5621 140.88 52.988 141.22 51.5827C141.895 49.2981 143.222 47.2551 145.042 45.6995C146.862 44.1438 149.098 43.1418 151.48 42.814C155.911 42.4338 160.376 42.7207 164.72 43.6652C165.221 43.8215 165.765 43.7762 166.232 43.5391C166.7 43.3021 167.055 42.8923 167.22 42.3983C168.02 40.419 168.9 38.4396 169.8 36.4602C170.004 36.109 170.094 35.7044 170.058 35.3008C170.023 34.8973 169.863 34.5144 169.6 34.2037C163.2 26.1674 156.26 18.6656 146.8 13.8557C146.343 13.661 145.942 13.3561 145.635 12.9688C145.328 12.5816 145.123 12.1243 145.04 11.6388C144.505 8.80926 143.653 6.04751 142.5 3.40454C141.959 1.99643 140.969 0.801217 139.68 0V0Z" fill="black"/>
</g>

</symbol><symbol id="htmlacademy" viewBox="0 0 27 34">
<path d="M13.6426 0.0157537L13.5 0L0 1.40733V26.0129L13.5 34L27 26.0129V1.40733L13.6426 0.0157537ZM25.2344 25.0151L13.5 31.9573L1.76561 25.0151V14.9293L13.4507 21.8451L13.4701 23.0984L5.45351 18.3548L5.44295 19.5801L13.4894 24.3885L13.5088 25.675L5.46408 20.9174L5.45351 22.1427L13.5 26.9511L21.6239 22.1182V20.8929V16.909L25.2432 14.7595L25.2344 25.0151ZM25.2344 13.4519L22.0147 15.3319L20.5325 16.2071L13.4666 12.0201L13.456 13.2454L19.4957 16.818L19.4429 16.8495L19.3126 16.9247L18.4536 17.4166L13.4666 14.4689L13.456 15.6942L17.3921 18.0222L16.4591 18.6314L16.438 18.6436L13.4666 16.902L13.456 18.1273L15.4029 19.2615L13.4155 20.4483L1.7973 13.5762L13.4349 6.61831L25.2344 13.4519ZM25.2344 12.2266L13.4401 5.31075L1.76561 12.2196V2.9897L13.5 1.76442L25.2344 2.9897V12.2266Z" fill="#666666"/>
</symbol><symbol id="icon_facebook" viewBox="0 0 22 22">
<path d="M16.5 1.83325H13.75C12.5344 1.83325 11.3686 2.30674 10.5091 3.14957C9.64956 3.99239 9.16667 5.1355 9.16667 6.32743V9.02394H6.41667V12.6193H9.16667V19.81H12.8333V12.6193H15.5833L16.5 9.02394H12.8333V6.32743C12.8333 6.08905 12.9299 5.86042 13.1018 5.69186C13.2737 5.52329 13.5069 5.4286 13.75 5.4286H16.5V1.83325Z" stroke="currentColor" stroke-width="1.1" stroke-linecap="round" stroke-linejoin="round" fill="none"/>
</symbol><symbol id="icon_instagram" viewBox="0 0 16 16">
<g clip-path="url(#clip0_88_473)">
<path d="M7.98438 0.0625C9.31771 0.0625 10.4062 0.078125 11.25 0.109375C11.9688 0.140625 12.6094 0.265625 13.1719 0.484375C13.7135 0.692708 14.1823 0.994792 14.5781 1.39062C14.974 1.78646 15.276 2.25521 15.4844 2.79687C15.7031 3.35937 15.8281 4 15.8594 4.71875C15.8906 5.5625 15.9062 6.65104 15.9062 7.98437C15.9062 9.31771 15.8906 10.4062 15.8594 11.25C15.8281 11.9687 15.7031 12.6094 15.4844 13.1719C15.276 13.7135 14.974 14.1823 14.5781 14.5781C14.1823 14.974 13.7135 15.276 13.1719 15.4844C12.6094 15.7031 11.9688 15.8281 11.25 15.8594C10.4062 15.8906 9.31771 15.9062 7.98438 15.9062C6.65104 15.9062 5.5625 15.8906 4.71875 15.8594C4 15.8281 3.35938 15.7031 2.79688 15.4844C2.25521 15.276 1.78646 14.974 1.39062 14.5781C0.994792 14.1823 0.692708 13.7135 0.484375 13.1719C0.265625 12.6094 0.140625 11.9687 0.109375 11.25C0.078125 10.4062 0.0625 9.31771 0.0625 7.98437C0.0625 6.65104 0.078125 5.5625 0.109375 4.71875C0.140625 4 0.265625 3.35937 0.484375 2.79687C0.692708 2.25521 0.994792 1.78646 1.39062 1.39062C1.78646 0.994792 2.25521 0.692708 2.79688 0.484375C3.35938 0.265625 4 0.140625 4.71875 0.109375C5.5625 0.078125 6.65104 0.0625 7.98438 0.0625ZM7.98438 1.09375C6.59896 1.09375 5.46875 1.10937 4.59375 1.14062C4.03125 1.16146 3.51042 1.26042 3.03125 1.4375C2.28125 1.75 1.75 2.28125 1.4375 3.03125C1.26042 3.51042 1.16146 4.03125 1.14062 4.59375C1.10938 5.46875 1.09375 6.59896 1.09375 7.98437C1.09375 9.36979 1.10938 10.5 1.14062 11.375C1.16146 11.9375 1.26042 12.4583 1.4375 12.9375C1.75 13.6875 2.28125 14.2187 3.03125 14.5312C3.51042 14.7083 4.03125 14.8073 4.59375 14.8281C5.46875 14.8594 6.59896 14.875 7.98438 14.875C9.36979 14.875 10.5 14.8594 11.375 14.8281C11.9375 14.8073 12.4583 14.7083 12.9375 14.5312C13.6875 14.2187 14.2188 13.6875 14.5312 12.9375C14.7083 12.4583 14.8073 11.9375 14.8281 11.375C14.8594 10.5 14.875 9.36979 14.875 7.98437C14.875 6.59896 14.8594 5.46875 14.8281 4.59375C14.8073 4.03125 14.7083 3.51042 14.5312 3.03125C14.2188 2.28125 13.6875 1.75 12.9375 1.4375C12.4583 1.26042 11.9375 1.16146 11.375 1.14062C10.5 1.10937 9.36979 1.09375 7.98438 1.09375ZM7.98438 11.1562C8.85938 11.1562 9.60677 10.8464 10.2266 10.2266C10.8464 9.60677 11.1562 8.85937 11.1562 7.98437C11.1562 7.10937 10.8464 6.36198 10.2266 5.74219C9.60677 5.1224 8.85938 4.8125 7.98438 4.8125C7.10938 4.8125 6.36198 5.1224 5.74219 5.74219C5.1224 6.36198 4.8125 7.10937 4.8125 7.98437C4.8125 8.85937 5.1224 9.60677 5.74219 10.2266C6.36198 10.8464 7.10938 11.1562 7.98438 11.1562ZM7.98438 3.92187C9.10938 3.92187 10.0677 4.31771 10.8594 5.10937C11.651 5.90104 12.0469 6.85937 12.0469 7.98437C12.0469 9.10937 11.651 10.0677 10.8594 10.8594C10.0677 11.651 9.10938 12.0469 7.98438 12.0469C6.85938 12.0469 5.90104 11.651 5.10938 10.8594C4.31771 10.0677 3.92188 9.10937 3.92188 7.98437C3.92188 6.85937 4.31771 5.90104 5.10938 5.10937C5.90104 4.31771 6.85938 3.92187 7.98438 3.92187ZM13.1719 3.76562C13.1719 4.02604 13.0781 4.2474 12.8906 4.42969C12.7031 4.61198 12.474 4.70312 12.2031 4.70312C11.9427 4.70312 11.7214 4.61198 11.5391 4.42969C11.3568 4.2474 11.2656 4.02604 11.2656 3.76562C11.2656 3.49479 11.3568 3.26562 11.5391 3.07812C11.7214 2.89062 11.9427 2.79687 12.2031 2.79687C12.4635 2.79687 12.6901 2.89323 12.8828 3.08594C13.0755 3.27865 13.1719 3.50521 13.1719 3.76562Z" fill="currentColor"/>
</g>
</symbol><symbol id="icon_vkontakte" viewBox="0 0 23 16">
<path d="M0.0700912 3.99266C0.0700912 3.37082 0.493211 3.03552 1.33945 2.98675L4.60039 3.00503C4.81925 3.00503 4.96515 3.09648 5.03811 3.27938C5.37368 4.19385 5.74938 4.98334 6.16521 5.64785C6.58103 6.31237 7.12453 7.07748 7.79568 7.94317C7.85404 8.05291 7.94888 8.10778 8.08019 8.10778C8.18233 8.10778 8.26257 8.0651 8.32093 7.97975L8.38659 7.77857L8.40848 4.6145C8.40848 4.39503 8.34647 4.24871 8.22245 4.17556C8.09843 4.1024 7.86863 4.04753 7.53305 4.01095C7.27043 3.97437 7.13912 3.84025 7.13912 3.60859C7.13912 3.55981 7.14641 3.52323 7.161 3.49885C7.4674 2.70631 8.34282 2.31004 9.78726 2.31004L11.0129 2.29175C11.5673 2.29175 12.0269 2.40758 12.3916 2.63925C12.7564 2.87091 12.9388 3.2367 12.9388 3.73661V7.88831C13.0409 7.94927 13.1357 7.97975 13.2233 7.97975C13.4421 7.97975 13.6318 7.87002 13.7923 7.65054C15.3973 5.77283 16.2654 4.51696 16.3967 3.88293C16.3967 3.87073 16.4113 3.84025 16.4405 3.79148C16.5426 3.60859 16.7104 3.45008 16.9438 3.31595C17.1773 3.18183 17.3815 3.09039 17.5566 3.04161C17.615 3.01723 17.6806 3.00503 17.7536 3.00503H21.1459L21.3647 3.02332C21.6565 3.02332 21.8827 3.13916 22.0432 3.37082C22.1015 3.44398 22.1416 3.52323 22.1635 3.60859C22.1854 3.69394 22.2 3.77929 22.2073 3.86464C22.2146 3.94999 22.2182 3.99876 22.2182 4.01095V4.13898C22.1161 4.63889 21.8571 5.17233 21.4413 5.7393C21.0255 6.30627 20.4966 6.91897 19.8546 7.57739C19.2126 8.2358 18.8114 8.66865 18.6509 8.87593C18.5196 9.02225 18.4539 9.15637 18.4539 9.2783C18.4539 9.37584 18.5123 9.48558 18.629 9.60751L21.8243 12.9728C21.9994 13.1678 22.0869 13.3812 22.0869 13.6129C22.0869 13.8933 21.9556 14.125 21.693 14.3079C21.4304 14.4908 21.1167 14.5944 20.7519 14.6188L20.3799 14.6371H17.0533C17.0387 14.6371 17.0095 14.6401 16.9657 14.6462C16.9219 14.6523 16.8928 14.6554 16.8782 14.6554C16.5572 14.6554 16.2581 14.5396 15.9809 14.3079C15.8787 14.2103 15.193 13.491 13.9236 12.1497C13.8507 12.0644 13.7485 11.9851 13.6172 11.912C13.5589 12.1071 13.4823 12.3875 13.3874 12.7533C13.2926 13.1191 13.2233 13.3812 13.1795 13.5397L13.1139 13.8506C12.968 14.2774 12.6616 14.5335 12.1947 14.6188L11.8883 14.6371H9.74349C8.53249 14.6371 7.32514 14.1738 6.12144 13.2471C4.91773 12.3204 3.8344 11.1225 2.87144 9.65323C1.90848 8.18398 1.01117 6.47392 0.179519 4.52306C0.106567 4.36455 0.0700912 4.18775 0.0700912 3.99266ZM13.2233 8.72962C12.9169 8.72962 12.6397 8.65951 12.3916 8.51929C12.1436 8.37907 12.0196 8.18703 12.0196 7.94317V3.73661C12.0196 3.49275 11.9466 3.319 11.8007 3.21536C11.6548 3.11172 11.3995 3.0599 11.0347 3.0599L9.78726 3.09648C9.15988 3.09648 8.68569 3.18793 8.36471 3.37082C9.00668 3.62687 9.32767 4.04143 9.32767 4.6145V7.83344C9.29849 8.13826 9.15258 8.39126 8.88996 8.59245C8.62733 8.79363 8.33552 8.89422 8.01454 8.89422C7.57683 8.89422 7.24125 8.71742 7.0078 8.36383C5.86975 6.92506 5.02351 5.55945 4.46908 4.267L4.27211 3.79148L1.36134 3.77319C1.17166 3.77319 1.06588 3.78233 1.044 3.80062C1.02211 3.81891 1.01117 3.87073 1.01117 3.95608C1.01117 4.06582 1.02576 4.18165 1.05494 4.30358L1.51454 5.32779C2.74013 7.97366 4.07149 10.0586 5.50864 11.5828C6.94579 13.1069 8.35741 13.8689 9.74349 13.8689H11.932C12.0196 13.8689 12.0852 13.8476 12.129 13.8049C12.1728 13.7623 12.2093 13.6799 12.2384 13.558L12.2822 13.3751L12.698 11.7657C12.8148 11.5462 12.9169 11.3999 13.0044 11.3267C13.1649 11.1926 13.3546 11.1255 13.5735 11.1255C13.9236 11.1255 14.2811 11.3023 14.6459 11.6559L16.5061 13.6312C16.6228 13.7897 16.7469 13.8689 16.8782 13.8689H20.4893C20.927 13.8689 21.1459 13.7775 21.1459 13.5946C21.1459 13.5336 21.124 13.4727 21.0802 13.4117L17.9068 10.1013C17.6588 9.84527 17.5347 9.57093 17.5347 9.2783C17.5347 8.98567 17.6515 8.70523 17.8849 8.43699C18.0746 8.19313 18.443 7.78771 18.9901 7.22074C19.5373 6.65377 20.0151 6.12338 20.4236 5.62956C20.8322 5.13575 21.1021 4.68766 21.2334 4.28529L21.299 4.04753C21.2845 4.02314 21.2772 3.98352 21.2772 3.92865C21.2772 3.87378 21.2699 3.82806 21.2553 3.79148H17.8193C17.6004 3.86464 17.4253 3.97437 17.294 4.12069L17.1627 4.46819C16.7979 5.3095 15.8423 6.60805 14.2957 8.36383C13.9893 8.60769 13.6318 8.72962 13.2233 8.72962Z" fill="currentColor"/>
</symbol></svg>