<svg width="191" height="38" viewBox="0 0 191 38" fill="none" xmlns="http://www.w3.org/2000/svg">
<g clip-path="url(#clip0_47321_308)">
<path d="M6.91078 20.72V18.46C13.5944 17.5423 20.3345 17.0979 27.0808 17.13C27.0808 17.73 27.0808 18.34 27.0208 18.95C28.9384 18.099 30.9536 17.4877 33.0208 17.13C31.7033 13.722 29.3025 10.8412 26.1879 8.93086C23.0732 7.02051 19.4172 6.1864 15.7822 6.55683C12.1472 6.92726 8.73456 8.48172 6.06929 10.9811C3.40402 13.4804 1.63374 16.7863 1.03078 20.39L6.91078 20.72Z" fill="#FDC305"/>
<path d="M28.0808 24.23C26.9208 25.51 26.6908 25.43 26.6908 27.68C26.6908 28.59 26.6908 32.58 26.6908 36.86C28.9833 35.346 30.8653 33.2879 32.1688 30.8694C33.4722 28.4509 34.1566 25.7474 34.1608 23C34.1476 21.9591 34.0405 20.9216 33.8408 19.9C31.769 21.1295 29.8375 22.5814 28.0808 24.23Z" fill="#FDC305"/>
<path d="M7.20077 25.72C7.20077 25.72 3.41077 24.28 2.01077 23.89C1.62784 23.7693 1.23687 23.6757 0.840775 23.61C0.94917 26.496 1.80636 29.3041 3.32816 31.7586C4.84996 34.2131 6.98403 36.2296 9.52077 37.61L7.20077 25.72Z" fill="#FDC305"/>
<path d="M27.1308 17.12C27.1714 11.5986 26.7028 6.08529 25.7308 0.650004C25.7308 0.650004 25.5908 -0.639996 24.8408 0.410004C24.2517 1.65814 23.8474 2.9854 23.6408 4.35C19.3826 4.07577 15.1083 4.18958 10.8708 4.69C10.0808 2 8.69078 0.750004 8.02078 1C7.35078 1.25 7.30078 4.31 7.30078 4.31L6.97078 18.41C13.652 17.506 20.3888 17.0749 27.1308 17.12V17.12Z" fill="#F06351"/>
<path d="M13.2508 14C13.2508 13.91 14.2508 14.68 14.6608 14.92C15.0708 15.16 15.2708 15.34 15.2708 15.51C15.2708 15.68 15.0008 15.85 14.6408 15.85C14.2808 15.85 13.7308 15.73 13.6408 15.58H14.5808H14.8708C14.2615 15.1294 13.7165 14.5978 13.2508 14V14Z" fill="black"/>
<path d="M20.7308 14.11L19.6408 15.44C19.6408 15.5 19.4708 15.79 19.8208 15.74C20.235 15.6783 20.6431 15.5812 21.0408 15.45C21.1508 15.45 21.1108 15.26 20.9308 15.28C20.7508 15.3 20.2408 15.33 19.9308 15.39L20.7708 14.13C20.7708 14.13 20.8408 14 20.7308 14.11Z" fill="black"/>
<path d="M17.5908 20.2C18.0543 19.9958 18.4375 19.6443 18.6808 19.2C18.9608 18.55 18.6808 18.29 18.2408 18.2C17.6387 18.0902 17.0173 18.2116 16.5008 18.54C16.1108 18.9 16.1608 19.26 16.4508 19.54C16.8021 19.8062 17.185 20.0279 17.5908 20.2V20.2Z" fill="black"/>
<path d="M17.1908 21.45C17.0787 21.6785 16.9224 21.8825 16.7308 22.05C16.446 22.2791 16.0959 22.4122 15.7308 22.43C15.2046 22.472 14.6814 22.3189 14.2608 22C14.063 21.8808 13.8844 21.7324 13.7308 21.56C13.6303 21.4491 13.5076 21.3605 13.3708 21.3C13.3708 21.3 14.1208 25.4 15.9408 26.05C17.7608 26.7 18.0808 25.3 18.1408 24.92C18.2009 23.7851 17.915 22.6588 17.3208 21.69C17.3008 21.38 17.2908 21.58 17.1908 21.45Z" fill="#F06351"/>
<path d="M15.5508 22.59C15.0861 22.5247 14.6397 22.3651 14.239 22.1209C13.8383 21.8767 13.4918 21.5531 13.2208 21.17C13.2075 21.157 13.1969 21.1414 13.1897 21.1242C13.1825 21.1071 13.1788 21.0886 13.1788 21.07C13.1788 21.0514 13.1825 21.0329 13.1897 21.0158C13.1969 20.9986 13.2075 20.983 13.2208 20.97C13.2338 20.9567 13.2494 20.9461 13.2665 20.9389C13.2837 20.9317 13.3021 20.928 13.3208 20.928C13.3394 20.928 13.3578 20.9317 13.375 20.9389C13.3922 20.9461 13.4077 20.9567 13.4208 20.97C13.9255 21.6642 14.6837 22.1313 15.5308 22.27V22.27C15.8624 22.245 16.1834 22.1413 16.4669 21.9674C16.7504 21.7934 16.9882 21.5544 17.1608 21.27L17.3008 21.08L17.4008 21.29C17.4008 21.29 17.7708 22.05 18.4008 22.09C19.0308 22.13 19.4508 21.68 20.0108 20.81C20.0238 20.7967 20.0394 20.7861 20.0565 20.7789C20.0737 20.7717 20.0921 20.768 20.1108 20.768C20.1294 20.768 20.1478 20.7717 20.165 20.7789C20.1822 20.7861 20.1977 20.7967 20.2108 20.81C20.2431 20.8306 20.2663 20.8629 20.2756 20.9C20.2849 20.9372 20.2796 20.9766 20.2608 21.01C19.6208 22.01 18.9908 22.45 18.3808 22.41C18.1488 22.3763 17.9274 22.2903 17.7334 22.1587C17.5394 22.0271 17.3778 21.8531 17.2608 21.65C17.0641 21.9245 16.8084 22.1514 16.5125 22.3141C16.2165 22.4767 15.8879 22.571 15.5508 22.59V22.59Z" fill="black"/>
<path d="M27.0808 18.92C25.2852 20.5437 23.592 22.277 22.0108 24.11C20.4394 25.9361 18.6646 27.5768 16.7208 29C16.5008 28.47 15.1008 27.49 15.1008 27.49C15.1008 27.49 11.9708 25.35 9.92078 23.67C8.81492 22.7373 7.76947 21.7353 6.79078 20.67L4.79078 20.56C7.68095 24.7655 11.911 27.8676 16.7908 29.36C17.6508 29.22 20.0608 27.5 21.8608 26.1C23.9797 24.2819 25.9648 22.3134 27.8008 20.21C28.3033 19.621 28.69 18.9425 28.9408 18.21C27.8408 18.6 27.0808 18.92 27.0808 18.92Z" fill="#F06351"/>
</g>
<g clip-path="url(#clip1_47321_308)">
<path d="M97.4253 26.3435C96.5303 25.0812 96.0861 23.5677 96.1608 22.0358V15.6511C96.0524 14.1027 96.4689 12.5625 97.3462 11.2665C98.2156 10.2665 99.5591 9.80499 101.535 9.80499C103.511 9.80499 104.775 10.2665 105.565 11.1127C106.423 12.1844 106.845 13.5264 106.751 14.8819V16.4204H102.878V14.6511C102.91 14.1279 102.829 13.604 102.641 13.1127C102.541 12.9144 102.382 12.7498 102.185 12.6401C101.988 12.5305 101.761 12.4807 101.535 12.4973C100.982 12.4973 100.586 12.6511 100.428 13.0358C100.25 13.5823 100.169 14.1549 100.191 14.7281V22.9588C100.15 23.515 100.259 24.072 100.507 24.5742C100.665 24.9588 101.061 25.1127 101.614 25.1127C102.167 25.1127 102.483 24.9588 102.641 24.5742C102.821 24.0544 102.901 23.5069 102.878 22.9588V21.1127H106.751V22.6511C106.831 24.0288 106.412 25.3902 105.565 26.4973C104.775 27.4204 103.432 27.8819 101.535 27.8819C99.6381 27.805 98.2156 27.3435 97.4253 26.3435Z" fill="#111111"/>
<path d="M111.414 10.0358H115.918L119.237 27.5742H115.602L114.97 23.8819H112.362L111.73 27.5742H108.015L111.414 10.0358ZM114.654 21.5742L113.705 14.7281L112.757 21.5742H114.654Z" fill="#111111"/>
<path d="M122.003 12.9588H119.316V10.0358H128.721V12.8819H126.034V27.5742H122.003V12.9588Z" fill="#111111"/>
<path d="M135.913 10.0358H142.867V11.8819H138.363V17.6512H141.998V19.4204H138.363V25.8819H142.867V27.6512H135.834V10.0358H135.913Z" fill="#111111"/>
<path d="M144.922 10.0358H146.661L151.798 21.6512V10.0358H153.852V27.5742H152.272L147.056 15.5742V27.5742H144.922V10.0358Z" fill="#111111"/>
<path d="M156.223 10.0358H163.178V11.8819H158.673V17.6512H162.309V19.4204H158.673V25.8819H163.178V27.6512H156.223V10.0358Z" fill="#111111"/>
<path d="M165.233 10.0358H168.868C170.298 9.93962 171.719 10.3194 172.899 11.1127C173.768 11.805 174.163 13.0358 174.163 14.6512C174.163 16.8819 173.452 18.2665 171.95 18.7281L174.479 27.4973H172.029L169.658 19.2665H167.683V27.4973H165.154V10.0358H165.233ZM168.71 17.5742C169.525 17.6396 170.337 17.4215 171.002 16.9588C171.476 16.5742 171.713 15.805 171.713 14.6512C171.735 14.078 171.655 13.5054 171.476 12.9588C171.298 12.5667 170.993 12.2423 170.607 12.0358C170.062 11.7943 169.465 11.6886 168.868 11.7281H167.762V17.4973H168.71V17.5742Z" fill="#111111"/>
<path d="M177.324 26.2665C176.503 24.9216 176.117 23.3666 176.218 21.805V15.9588C176.198 14.8441 176.331 13.7318 176.613 12.6511C176.877 11.8436 177.404 11.1417 178.115 10.6511C178.997 10.1427 180.015 9.90173 181.039 9.95884C182.698 9.95884 183.884 10.3435 184.595 11.1896C185.413 12.3069 185.805 13.6674 185.701 15.0358V15.6511H183.331V15.1127C183.334 14.4685 183.281 13.8251 183.172 13.1896C183.106 12.788 182.879 12.4285 182.54 12.1896C182.096 11.9058 181.569 11.7708 181.039 11.805C180.472 11.7697 179.911 11.9334 179.458 12.2665C179.272 12.419 179.12 12.6068 179.012 12.8184C178.903 13.0301 178.84 13.2611 178.826 13.4973C178.722 14.185 178.669 14.8791 178.668 15.5742V22.1127C178.61 23.1088 178.771 24.1056 179.142 25.0358C179.458 25.6511 180.09 25.8819 181.039 25.8819C181.413 25.9273 181.793 25.8639 182.131 25.6997C182.468 25.5354 182.748 25.2777 182.935 24.9588C183.353 23.9861 183.542 22.9349 183.489 21.8819V20.6511H181.197V18.8819H185.78V27.5742H184.2L183.963 25.5742C183.756 26.2445 183.324 26.8281 182.737 27.2323C182.15 27.6365 181.441 27.8381 180.723 27.805C180.07 27.8424 179.417 27.7214 178.824 27.4529C178.231 27.1844 177.716 26.7767 177.324 26.2665V26.2665Z" fill="#111111"/>
<path d="M190.838 21.4204L186.966 10.1127H189.337L192.103 18.5742L194.79 10.1127H197.161L193.288 21.4204V27.5742H190.917V21.4204H190.838Z" fill="#111111"/>
</g>
<defs>
<clipPath id="clip0_47321_308">
<rect width="33.32" height="37.61" fill="white" transform="translate(0.840775)"/>
</clipPath>
<clipPath id="clip1_47321_308">
<rect width="101" height="18" fill="white" transform="translate(96.1608 9.80499)"/>
</clipPath>
</defs>
</svg>
